<svg xmlns="http://www.w3.org/2000/svg" viewBox="0 0 500 400">
  <!-- Gradients -->
  <defs>
    <linearGradient id="skyGradient" x1="0" y1="0" x2="0" y2="1">
      <stop offset="0%" stop-color="#87CEEB"/>
      <stop offset="100%" stop-color="#B0E0E6"/>
    </linearGradient>
    <linearGradient id="sandGradient" x1="0" y1="0" x2="0" y2="1">
      <stop offset="0%" stop-color="#FFE4B5"/>
      <stop offset="100%" stop-color="#FFD39B"/>
    </linearGradient>
    <linearGradient id="dolphinGradient" x1="0" y1="0" x2="0" y2="1">
      <stop offset="0%" stop-color="#5EBAD4"/>
      <stop offset="100%" stop-color="#2F7F96"/>
    </linearGradient>
    <radialGradient id="sunGradient" cx="50%" cy="50%" r="50%">
      <stop offset="0%" stop-color="yellow"/>
      <stop offset="100%" stop-color="orange" stop-opacity="0.7"/>
    </radialGradient>
  </defs>

  <!-- Sky & Sand -->
  <rect width="500" height="250" fill="url(#skyGradient)"/>
  <rect y="250" width="500" height="150" fill="url(#sandGradient)"/>

  <!-- Sun -->
  <circle cx="430" cy="70" r="40" fill="url(#sunGradient)"/>
  <circle cx="430" cy="70" r="60" fill="orange" opacity="0.1"/>

  <!-- Beach umbrella -->
  <g transform="translate(90,150)">
    <ellipse cx="50" cy="100" rx="60" ry="12" fill="rgba(0,0,0,0.15)"/>
    <rect x="48" y="30" width="4" height="120" fill="#8B5A2B"/>
    <path d="M0 30 Q50 -30 100 30 Z" fill="#FF6347"/>
    <path d="M0 30 Q25 0 50 30 Z" fill="#FFD700"/>
    <path d="M50 30 Q75 0 100 30 Z" fill="#1E90FF"/>
  </g>

  <!-- Beach chair -->
  <g transform="translate(180,200)">
    <ellipse cx="75" cy="90" rx="90" ry="15" fill="rgba(0,0,0,0.2)"/>
    <!-- Chair frame -->
    <rect width="150" height="15" fill="#8B4513"/>
    <rect y="20" width="150" height="15" fill="#A0522D"/>
    <rect y="40" width="150" height="15" fill="#8B4513"/>
    <rect x="5" y="55" width="10" height="40" fill="#8B4513"/>
    <rect x="135" y="55" width="10" height="40" fill="#8B4513"/>
  </g>

  <!-- Dolphin sitting like a human -->
  <g transform="translate(220,140)">
    <!-- Shadow under dolphin -->
    <ellipse cx="50" cy="130" rx="60" ry="15" fill="rgba(0,0,0,0.2)"/>

    <!-- Body upright -->
    <ellipse cx="50" cy="80" rx="40" ry="50" fill="url(#dolphinGradient)"/>
    
    <!-- Head -->
    <ellipse cx="50" cy="35" rx="25" ry="20" fill="url(#dolphinGradient)"/>
    
    <!-- Eyes -->
    <circle cx="58" cy="30" r="6" fill="white"/>
    <circle cx="58" cy="30" r="3" fill="black"/>
    <circle cx="60" cy="28" r="1.5" fill="white" opacity="0.8"/>
    
    <!-- Sunglasses -->
    <rect x="45" y="25" width="18" height="8" rx="2" fill="black"/>
    <rect x="63" y="25" width="18" height="8" rx="2" fill="black"/>
    <line x1="61" y1="29" x2="63" y2="29" stroke="black" stroke-width="2"/>
    <line x1="45" y1="29" x2="40" y2="29" stroke="black" stroke-width="2"/>

    <!-- Arms as flippers resting -->
    <path d="M25 70 Q15 90 35 95" fill="#4F9FBF"/> <!-- left flipper -->
    <path d="M75 70 Q85 90 65 95" fill="#4F9FBF"/> <!-- right flipper -->
    
    <!-- Juice cup in right flipper -->
    <g transform="translate(65,95)">
      <ellipse cx="10" cy="35" rx="10" ry="3" fill="rgba(0,0,0,0.2)"/>
      <rect x="0" y="0" width="20" height="30" rx="4" fill="orange"/>
      <line x1="10" y1="-10" x2="10" y2="0" stroke="white" stroke-width="2"/>
      <circle cx="10" cy="-10" r="3" fill="pink"/>
    </g>
    
    <!-- Legs: dolphin tail like crossed legs -->
    <path d="M40 120 Q30 140 45 150 Q60 140 50 120 Z" fill="url(#dolphinGradient)"/>
    <path d="M60 120 Q70 140 55 150 Q40 140 50 120 Z" fill="url(#dolphinGradient)"/>
  </g>

  <!-- Gentle waves -->
  <path d="M0 250 Q 50 240, 100 250 T 200 250 T 300 250 T 400 250 T 500 250" 
        fill="none" stroke="#00BFFF" stroke-width="3" opacity="0.4"/>
</svg>
